<svg width="100" height="100" viewBox="0 0 100 100" fill="none" xmlns="http://www.w3.org/2000/svg">
<g clip-path="url(#clip0_759_1203)">
<rect width="100" height="100" fill="white"/>
<rect x="-17.5" y="-3.5" width="134" height="391" rx="4.5" stroke="#9747FF" stroke-dasharray="10 5"/>
<path d="M97 118C97 155.555 75.7335 186 49.5 186C23.2665 186 2 155.555 2 118C2 80.4446 23.2665 57.5 49.5 57.5C75.7335 57.5 97 80.4446 97 118Z" fill="#0068FF"/>
<path d="M70.2 42.5C70.2 54.5192 60.8984 64.2 49.5 64.2C38.1016 64.2 28.8 54.5192 28.8 42.5C28.8 30.4808 38.1016 20.8 49.5 20.8C60.8984 20.8 70.2 30.4808 70.2 42.5Z" fill="#0068FF" stroke="white" stroke-width="1.6"/>
</g>
<defs>
<clipPath id="clip0_759_1203">
<rect width="100" height="100" fill="white"/>
</clipPath>
</defs>
</svg>
