<svg width="24" height="24" viewBox="0 0 24 24" fill="none" xmlns="http://www.w3.org/2000/svg">
<path d="M2 8.42871C2 7.87643 2.44772 7.42871 3 7.42871H4.54682V15.5716H3C2.44772 15.5716 2 15.1239 2 14.5716V8.42871Z" fill="#999999"/>
<path d="M4.54688 7.42857L10.9139 2V21L4.54688 15.5714V7.42857Z" fill="#999999"/>
<path d="M10.9138 2V2C11.1679 2 11.295 2 11.4003 2.02297C11.7824 2.10631 12.0809 2.40478 12.1643 2.78691C12.1872 2.89222 12.1872 3.01928 12.1872 3.27341V19.7266C12.1872 19.9807 12.1872 20.1078 12.1643 20.2131C12.0809 20.5952 11.7824 20.8937 11.4003 20.977C11.295 21 11.1679 21 10.9138 21V21V2Z" fill="#999999"/>
<path d="M15 9L15.3448 9.36745C15.9414 10.0033 16.2734 10.8424 16.2734 11.7143V11.7143V11.7143C16.2734 12.5862 15.9414 13.4253 15.3448 14.0611L15 14.4286" stroke="#999999" stroke-width="0.9" stroke-linecap="round"/>
<path d="M16.6441 7L16.6969 7.05633C17.8901 8.32795 18.5542 10.0063 18.5542 11.75V11.75V11.75C18.5542 13.4937 17.8901 15.172 16.6969 16.4437L16.6441 16.5" stroke="#999999" stroke-width="0.9" stroke-linecap="round"/>
<path d="M18 5L18.1716 5.17157C19.9826 6.98258 21 9.43884 21 12V12V12C21 14.5612 19.9826 17.0174 18.1716 18.8284L18 19" stroke="#999999" stroke-width="0.9" stroke-linecap="round"/>
</svg>
